STARTFONT 2.1
COMMENT Transformed from SYMBIAN FSC to EPOC BDF format
COMMENT Recoded from Symbian random to Unicode standard plus Private Use Area
COMMENT Original font file name: eiksym15.fsc
FONT eiksym15
SIZE 15 72 72
FONTBOUNDINGBOX 16 15 0 -3
STARTPROPERTIES 6
Uid 268435661
MaxNormalCharWidth 16
MaxConsecutiveFillChars 5
FONT_ASCENT 12
FONT_DESCENT 3
COPYRIGHT "Copyright (c) 1999 Symbian Ltd."
ENDPROPERTIES
CHARS 27
STARTCHAR checkmark
ENCODING 10003
SWIDTH 1067 0
DWIDTH 16 0
BBX 12 12 2 0
BITMAP
0030
0060
00C0
0180
0380
0700
0600
CE00
EC00
7C00
3800
1000
ENDCHAR
STARTCHAR taboutsymbol
ENCODING 63203
SWIDTH 600 0
DWIDTH 9 0
BBX 9 8 0 3
BITMAP
8F80
FF80
8000
8F80
FF80
8000
8F80
FF80
ENDCHAR
STARTCHAR left16grayselector
ENCODING 63204
SWIDTH 533 0
DWIDTH 8 0
BBX 8 5 0 0
BITMAP
03
3F
FF
3F
03
ENDCHAR
STARTCHAR right16grayselector
ENCODING 63205
SWIDTH 533 0
DWIDTH 8 0
BBX 8 5 0 0
BITMAP
C0
FC
FF
FC
C0
ENDCHAR
STARTCHAR right4grayselector
ENCODING 63206
SWIDTH 1067 0
DWIDTH 16 0
BBX 16 5 0 0
BITMAP
F000
FFF0
FFFF
FFF0
F000
ENDCHAR
STARTCHAR depressedleftear
ENCODING 63207
SWIDTH 800 0
DWIDTH 12 0
BBX 12 13 0 -2
BITMAP
0010
0070
0190
0610
1810
6010
8010
6010
1810
0610
0190
0070
0010
ENDCHAR
STARTCHAR depressedrightear
ENCODING 63208
SWIDTH 800 0
DWIDTH 12 0
BBX 12 13 0 -2
BITMAP
8000
E000
9800
8600
8180
8060
8010
8060
8180
8600
9800
E000
8000
ENDCHAR
STARTCHAR leftear
ENCODING 63209
SWIDTH 800 0
DWIDTH 12 0
BBX 12 13 0 -2
BITMAP
0010
0070
01F0
07F0
1FF0
7FF0
FFF0
7FF0
1FF0
07F0
01F0
0070
0010
ENDCHAR
STARTCHAR rightear
ENCODING 63210
SWIDTH 800 0
DWIDTH 12 0
BBX 12 13 0 -2
BITMAP
8000
E000
F800
FE00
FF80
FFE0
FFF0
FFE0
FF80
FE00
F800
E000
8000
ENDCHAR
STARTCHAR menuellipsis
ENCODING 63211
SWIDTH 533 0
DWIDTH 8 0
BBX 8 8 0 0
BITMAP
3C
7E
FF
FF
FF
FF
7E
3C
ENDCHAR
STARTCHAR menucascade
ENCODING 63212
SWIDTH 933 0
DWIDTH 14 0
BBX 10 11 2 0
BITMAP
8000
E000
F800
FE00
FF80
FFC0
FF80
FE00
F800
E000
8000
ENDCHAR
STARTCHAR scrolltobottom
ENCODING 63213
SWIDTH 867 0
DWIDTH 13 0
BBX 9 9 2 0
BITMAP
FF80
7F00
7F00
3E00
1C00
1C00
0800
FF80
FF80
ENDCHAR
STARTCHAR scrolltotop
ENCODING 63214
SWIDTH 867 0
DWIDTH 13 0
BBX 9 9 2 0
BITMAP
FF80
FF80
0800
1C00
1C00
3E00
7F00
7F00
FF80
ENDCHAR
STARTCHAR scrollendleft
ENCODING 63215
SWIDTH 867 0
DWIDTH 13 0
BBX 9 9 2 0
BITMAP
C080
C380
C780
DF80
FF80
DF80
C780
C380
C080
ENDCHAR
STARTCHAR scrollendright
ENCODING 63216
SWIDTH 867 0
DWIDTH 13 0
BBX 9 9 2 0
BITMAP
8180
E180
F180
FD80
FF80
FD80
F180
E180
8180
ENDCHAR
STARTCHAR scrollpagedown
ENCODING 63217
SWIDTH 867 0
DWIDTH 13 0
BBX 9 9 2 0
BITMAP
FF80
7F00
3E00
1C00
FF80
7F00
3E00
1C00
0800
ENDCHAR
STARTCHAR scrollpageup
ENCODING 63218
SWIDTH 867 0
DWIDTH 13 0
BBX 9 9 2 0
BITMAP
0800
1C00
3E00
7F00
FF80
1C00
3E00
7F00
FF80
ENDCHAR
STARTCHAR scrollpageleft
ENCODING 63219
SWIDTH 867 0
DWIDTH 13 0
BBX 9 9 2 0
BITMAP
0880
1980
3B80
7F80
FF80
7F80
3B80
1980
0880
ENDCHAR
STARTCHAR scrollpageright
ENCODING 63220
SWIDTH 867 0
DWIDTH 13 0
BBX 9 9 2 0
BITMAP
8800
CC00
EE00
FF00
FF80
FF00
EE00
CC00
8800
ENDCHAR
STARTCHAR scrolldown
ENCODING 63221
SWIDTH 867 0
DWIDTH 13 0
BBX 9 9 2 0
BITMAP
FF80
7F00
7F00
3E00
3E00
1C00
1C00
0800
0800
ENDCHAR
STARTCHAR scrollup
ENCODING 63222
SWIDTH 867 0
DWIDTH 13 0
BBX 9 9 2 0
BITMAP
0800
0800
1C00
1C00
3E00
3E00
7F00
7F00
FF80
ENDCHAR
STARTCHAR scrollleft
ENCODING 63223
SWIDTH 867 0
DWIDTH 13 0
BBX 9 9 2 0
BITMAP
0080
0380
0F80
3F80
FF80
3F80
0F80
0380
0080
ENDCHAR
STARTCHAR scrollright
ENCODING 63224
SWIDTH 867 0
DWIDTH 13 0
BBX 9 9 2 0
BITMAP
8000
E000
F800
FE00
FF80
FE00
F800
E000
8000
ENDCHAR
STARTCHAR sortbyname
ENCODING 63225
SWIDTH 1067 0
DWIDTH 16 0
BBX 14 13 1 -1
BITMAP
D86C
D86C
9024
9724
0700
0500
0D80
0880
0880
1FC0
1040
3060
3060
ENDCHAR
STARTCHAR sortbytype
ENCODING 63226
SWIDTH 1067 0
DWIDTH 16 0
BBX 16 14 0 -2
BITMAP
0707
1939
60C1
8D1D
B17D
8D6D
B16D
8D65
B165
8D45
B141
8707
9938
E1C0
ENDCHAR
STARTCHAR sortbysize
ENCODING 63227
SWIDTH 1067 0
DWIDTH 16 0
BBX 16 14 0 -2
BITMAP
0700
1900
6100
8100
8D03
B10D
8D31
B125
8D29
B125
8129
8623
982C
E030
ENDCHAR
STARTCHAR sortbydate
ENCODING 63228
SWIDTH 1067 0
DWIDTH 16 0
BBX 16 14 0 -2
BITMAP
070C
1934
60C4
8B02
B23A
854A
B74A
8511
B725
852D
B6B1
8586
9798
E6E0
ENDCHAR
ENDFONT
